<svg xmlns="http://www.w3.org/2000/svg" viewBox="0 0 2000 2000" style="enable-background:new 0 0 2000 2000" xml:space="preserve"><circle cx="1000" cy="1000" r="670" style="fill:#d19408"/><path d="M1000 330v1340c370.03 0 670-299.97 670-670s-299.97-670-670-670z" style="fill:#e7c21e"/><path d="M1350.72 920.26v-62.12h-350.07v67.02c-19.79-7.39-38.78-14.97-56.94-22.77-34.87-14.95-63.92-32.15-87.16-51.61-23.25-19.44-34.85-45.25-34.85-77.42 0-17.95 3.93-34.78 11.8-50.49 7.86-15.71 19.48-29.35 34.83-40.95 15.36-11.59 34.3-20.93 56.77-28.05 22.47-7.1 48.33-10.66 77.56-10.66 48.7 0 90.1 10.29 124.19 30.86 34.08 20.58 54.13 52.93 60.13 97.06h76.44c-4.51-27.67-14.62-52.55-30.35-74.62-15.74-22.05-35.59-40.76-59.55-56.1-23.99-15.32-51.14-26.93-81.47-34.78-30.33-7.86-61.97-11.78-94.93-11.78-34.47 0-67.26 4.49-98.34 13.47-31.1 8.97-58.43 22.07-82.03 39.27-23.6 17.21-42.34 38.9-56.19 65.07-13.85 26.19-20.77 56.1-20.77 89.76 0 44.15 11.22 79.66 33.66 106.59 22.44 26.93 50.67 49.37 84.71 67.32 34.03 17.95 70.87 33.29 110.52 46 10.87 3.49 21.53 7.11 31.98 10.85v174.2h46v-156.35c11.12 4.67 21.96 9.5 32.54 14.5 34.03 16.09 62.27 35.73 84.71 58.91 22.44 23.19 33.66 54.24 33.66 93.13 0 48.63-17.77 84.15-53.3 106.59-35.53 22.44-82.85 33.66-141.93 33.66-47.12 0-84.9-6.17-113.32-18.51-28.43-12.34-50.12-27.1-65.07-44.32-14.97-17.2-25.07-34.95-30.3-53.3-5.24-18.32-8.24-33.84-8.97-46.56h-76.3c1.49 32.17 9.92 61.34 25.28 87.52 15.36 26.19 36.35 48.44 62.95 66.76 26.62 18.34 57.91 32.54 93.88 42.64 35.98 10.1 75.31 15.14 118.04 15.14 43.46 0 82.61-5.24 117.46-15.71 34.85-10.46 64.64-25.42 89.37-44.88 24.74-19.44 43.85-43 57.35-70.69 13.48-27.67 20.23-58.35 20.23-92.01 0-46.37-11.62-84.33-34.87-113.88-23.25-29.54-52.3-54.23-87.17-74.05-34.87-19.81-72.74-36.47-113.59-49.93-3.58-1.18-7.12-2.37-10.66-3.56v-21.21h304.07zm-327.07 90.78c-12.7 0-23-10.3-23-23s10.3-23 23-23 23 10.3 23 23-10.29 23-23 23z" style="fill:#010202"/><circle cx="1000" cy="1000" r="575.59" style="fill:none;stroke:#010202;stroke-width:71;stroke-miterlimit:10"/></svg>