<?xml version="1.0" encoding="utf-8"?>
<!-- Generator: Adobe Illustrator 25.2.1, SVG Export Plug-In . SVG Version: 6.00 Build 0)  -->
<svg version="1.1" id="Capa_1" xmlns="http://www.w3.org/2000/svg" xmlns:xlink="http://www.w3.org/1999/xlink" x="0px" y="0px"
	 viewBox="0 0 509.71 510.24" style="enable-background:new 0 0 509.71 510.24;" xml:space="preserve">
<style type="text/css">
	.st0{fill:#ECEFF1;}
	.st1{fill:#CFD8DC;}
	.st2{fill:#263238;}
	.st3{fill:#455A64;}
</style>
<g>
	<circle class="st0" cx="254.86" cy="254.24" r="196"/>
	<path class="st1" d="M133.85,200.86c0,0,36.82-73.2,103.19-77.75c10.65-0.73,13.45-10.99,21.45-13.84l13.07-23.5l32.99,34.93
		l63.26,48.72l83.05,84.82c0,0,3.86,82.57-63.18,144.13c-56.71,52.07-129.82,55.02-154.27,50.71l-79.17-89.32
		C154.24,359.75,102.39,225.7,133.85,200.86z"/>
</g>
<g>
	<g>
		<circle class="st2" cx="257.86" cy="255.12" r="22.5"/>
		<path class="st3" d="M257.86,232.62c-12.43,0-22.5,10.07-22.5,22.5c0,12.43,10.07,22.5,22.5,22.5V232.62z"/>
	</g>
	<g>
		<path class="st2" d="M400.72,240.74c-6.39-68.48-60.89-122.97-129.36-129.36V85.88h-27v25.49
			c-68.48,6.39-122.97,60.89-129.36,129.36H89.5v27h25.49c6.39,68.48,60.89,122.97,129.36,129.36v25.49h27V397.1
			c68.48-6.39,122.97-60.89,129.36-129.36h25.49v-27H400.72z M259.07,370.74c-64.34,0-116.5-52.16-116.5-116.5
			s52.16-116.5,116.5-116.5s116.5,52.16,116.5,116.5S323.41,370.74,259.07,370.74z"/>
		<path class="st3" d="M259.07,422.59v-51.86c-64.34,0-116.5-52.16-116.5-116.5s52.16-116.5,116.5-116.5V85.88h-14.71v25.49
			c-68.48,6.39-122.97,60.89-129.36,129.36H89.5v27h25.49c6.39,68.48,60.89,122.97,129.36,129.36v25.49H259.07z"/>
	</g>
</g>
</svg>
